<svg xmlns="http://www.w3.org/2000/svg" xmlns:xlink="http://www.w3.org/1999/xlink" width="129" height="129" viewBox="0 0 129 129">
  <defs>
    <clipPath id="clip-path">
      <path id="Shape" d="M64.5,129A64.508,64.508,0,0,1,18.826,18.947a64.381,64.381,0,0,1,91.227,0A64.44,64.44,0,0,1,64.5,129Zm0-119.078a54.511,54.511,0,0,0-38.545,93.121,54.513,54.513,0,1,0,77.095-77.09A54.208,54.208,0,0,0,64.5,9.922Zm-.375,88.89c-.808,0-1.627-.011-2.434-.034a1.946,1.946,0,0,1-2.117-2.17c-.027-1.085-.027-2.175-.027-3.228-.027-2.4-.1-2.482-2.434-2.844A30.134,30.134,0,0,1,48.449,88.1c-2.117-1-2.362-1.525-1.746-3.764q.152-.531.3-1.064l.008-.027c.357-1.265.725-2.569,1.142-3.83.418-1.276.785-1.728,1.4-1.728a3.594,3.594,0,0,1,1.5.5A28.4,28.4,0,0,0,60.675,81a14.078,14.078,0,0,0,1.692.1A11.68,11.68,0,0,0,67,80.18a4.769,4.769,0,0,0,1.174-8.44,15.5,15.5,0,0,0-3.59-2.072c-1-.431-2.04-.839-3.041-1.233a46.787,46.787,0,0,1-6.8-3.1c-5.633-3.312-8.208-7.579-7.872-13.043.393-6.436,3.994-10.914,10.7-13.311l.127-.045c2.508-.892,2.508-.892,2.53-3.545V32.66c.041-2.048.385-2.389,2.456-2.434.214-.009.428-.012.641-.012s.424,0,.637.006.428.006.643.006c4.381,0,4.381,0,4.4,4.3V34.6c.026,2.933.026,2.989,3.1,3.441a27.459,27.459,0,0,1,6.814,2,1.96,1.96,0,0,1,1.3,2.6q-.156.538-.31,1.077c-.426,1.483-.867,3.015-1.364,4.5-.388,1.178-.769,1.617-1.407,1.617a3.577,3.577,0,0,1-1.451-.447,22.247,22.247,0,0,0-9.557-2.13c-.409,0-.827.011-1.241.032a8.17,8.17,0,0,0-2.88.585,4.3,4.3,0,0,0-2.79,3.323,4.142,4.142,0,0,0,1.781,3.786,18.318,18.318,0,0,0,4.7,2.581l1.193.483.04.016a70.38,70.38,0,0,1,7.327,3.288,15.852,15.852,0,0,1,8.09,10.9,14.337,14.337,0,0,1-3.214,12.027,16.539,16.539,0,0,1-8.515,5.35,2.32,2.32,0,0,0-2.063,2.652c.051.98.033,1.986.017,2.96-.008.5-.017.992-.017,1.478a1.827,1.827,0,0,1-2.018,2.054C65.75,98.8,64.931,98.812,64.123,98.812Z" fill="#533d86"/>
    </clipPath>
  </defs>
  <g clip-path="url(#clip-path)">
    <g id="Colors_Primary" data-name="Colors/Primary" transform="translate(-10.985 -10.985)">
      <rect id="Colors_Primary_background" data-name="Colors/Primary background" width="151" height="151" transform="translate(-0.015 -0.015)" fill="#533d86"/>
      <rect id="Rectangle_3" data-name="Rectangle 3" width="151" height="151" transform="translate(-0.015 -0.015)" fill="#533d86"/>
    </g>
  </g>
</svg>
