<svg xmlns="http://www.w3.org/2000/svg" xmlns:xlink="http://www.w3.org/1999/xlink" width="19.191" height="19.2" viewBox="0 0 19.191 19.2">
  <defs>
    <clipPath id="clip-path">
      <path id="Shape" d="M18.392,19.2h0l-3.875-1.426a1.393,1.393,0,0,0-.558-.111,1.481,1.481,0,0,0-.517.092c0,.005,0,.005-.009.005a.358.358,0,0,0-.078.032,9.865,9.865,0,0,1-3.753.734,9.714,9.714,0,0,1-6.788-2.712,9.036,9.036,0,0,1,0-13.1A9.715,9.715,0,0,1,9.6,0a9.83,9.83,0,0,1,3.818.762,9.556,9.556,0,0,1,3.091,2.073,9.029,9.029,0,0,1,1.158,11.441,1.447,1.447,0,0,0-.1.153l-.011.017a1.381,1.381,0,0,0-.18.674l1.02,4.078ZM14.031,8.123A1.477,1.477,0,1,0,15.507,9.6,1.478,1.478,0,0,0,14.031,8.123Zm-4.431,0A1.477,1.477,0,1,0,11.077,9.6,1.478,1.478,0,0,0,9.6,8.123Zm-4.431,0A1.477,1.477,0,1,0,6.646,9.6,1.478,1.478,0,0,0,5.169,8.123Z" fill="#fff"/>
    </clipPath>
  </defs>
  <g id="mensagem" transform="translate(-2.4 -2.4)">
    <g id="Grupo_63" data-name="Grupo 63" transform="translate(2.4 2.4)" clip-path="url(#clip-path)">
      <g id="Colors_Primary" data-name="Colors/Primary" transform="translate(-2.4 -2.4)">
        <rect id="Colors_Primary_background" data-name="Colors/Primary background" width="24" height="24" fill="#fff"/>
        <rect id="Rectangle_3" data-name="Rectangle 3" width="24" height="24" fill="#fff"/>
      </g>
    </g>
  </g>
</svg>
